<svg width="200" height="200" viewBox="0 0 200 200" fill="none" xmlns="http://www.w3.org/2000/svg">
<rect x="9.98603" y="9.77295" width="179.61" height="179.61" rx="89.8052" stroke="currentColor" stroke-opacity="0.1"/>
<g clip-path="url(#clip0_8963_61)">
<path d="M191.208 105.533L199.508 97.2321C199.986 96.7544 199.986 95.9791 199.508 95.5007L197.785 93.7772L195.598 95.9636C195.77 96.4719 195.655 97.0544 195.25 97.4594C194.842 97.8665 194.255 97.9806 193.745 97.8049L191.637 99.9121C191.813 100.422 191.699 101.01 191.292 101.417C190.723 101.987 189.801 101.987 189.232 101.417C189.096 101.282 188.989 101.121 188.916 100.945C188.842 100.768 188.805 100.578 188.805 100.387C188.805 100.196 188.842 100.006 188.916 99.8292C188.989 99.6524 189.096 99.4918 189.232 99.3565C189.435 99.1533 189.694 99.0147 189.976 98.9583C190.258 98.9019 190.55 98.9302 190.816 99.0395L192.781 97.0745L187.609 97.0742C187.539 97.2167 187.446 97.3469 187.334 97.4596C186.765 98.0285 185.843 98.0285 185.273 97.4596C184.704 96.8904 184.704 95.968 185.273 95.3995C185.843 94.8305 186.765 94.8305 187.334 95.3995C187.47 95.5358 187.579 95.6979 187.652 95.8764H192.871C192.944 95.6978 193.053 95.5356 193.189 95.3995C193.62 94.9684 194.253 94.8647 194.782 95.0858L196.938 92.9302L191.246 87.2386C191.017 87.009 190.705 86.88 190.38 86.88C190.056 86.88 189.744 87.009 189.515 87.2386L181.214 95.5394C180.736 96.0174 180.736 96.7924 181.214 97.2711L189.476 105.533C189.706 105.762 190.017 105.891 190.342 105.891C190.667 105.891 190.978 105.762 191.208 105.533Z" fill="#F34F29"/>
</g>
<path d="M87.9518 1.20483H104.819V18.0723H87.9518V1.20483Z" fill="#F5DE19"/>
<path d="M99.2825 14.3825C99.4262 14.6744 99.6495 14.9198 99.9266 15.0903C100.204 15.2608 100.523 15.3496 100.849 15.3463C101.505 15.3463 101.925 15.018 101.925 14.5632C101.925 14.021 101.494 13.8271 100.771 13.5108L100.375 13.3409C99.2301 12.8536 98.4711 12.2433 98.4711 10.953C98.4711 9.76441 99.3747 8.85899 100.792 8.85899C101.251 8.82586 101.709 8.92855 102.11 9.15427C102.511 9.37999 102.837 9.71874 103.046 10.1283L101.807 10.9204C101.727 10.7174 101.586 10.5436 101.404 10.4223C101.223 10.3009 101.008 10.2377 100.79 10.2409C100.694 10.2314 100.598 10.2418 100.507 10.2715C100.416 10.3012 100.332 10.3496 100.261 10.4135C100.189 10.4774 100.132 10.5555 100.093 10.6428C100.053 10.7301 100.032 10.8246 100.031 10.9204C100.031 11.3957 100.326 11.5885 101.006 11.8843L101.402 12.0542C102.749 12.6319 103.511 13.2204 103.511 14.5439C103.511 15.971 102.39 16.753 100.884 16.753C100.298 16.7903 99.7129 16.6572 99.2004 16.3695C98.6878 16.0819 98.2695 15.652 97.9958 15.1319L99.2825 14.3825ZM93.6831 14.5198C93.9319 14.9614 94.1584 15.3349 94.703 15.3349C95.2235 15.3349 95.5524 15.1313 95.5524 14.3391V8.94935H97.1373V14.3602C97.1373 16.0012 96.1735 16.7481 94.7705 16.7481C94.2745 16.7753 93.782 16.6517 93.3576 16.3936C92.9333 16.1356 92.5969 15.7552 92.3928 15.3024L93.6831 14.5198Z" fill="black"/>
<path d="M16.3861 102.469L1.20482 103.822V88.9494L16.3837 90.3042L18.0723 96.3945L16.3861 102.469Z" fill="#1572B6"/>
<path d="M16.7819 96.3855L15.4175 91.4638L2.44639 90.306V96.3855H16.7819Z" fill="#33A9DC"/>
<path d="M7.94639 96.3855V93.9216L6.03976 93.7518V96.3855H4.17771V91.7168L4.67711 91.7614L9.80843 92.2186V96.3855H7.94639Z" fill="white"/>
<path d="M12.7819 96.374L12.7843 96.3825L12.2241 98.456L10.7392 98.5885V100.458L13.6627 100.197L14.7217 96.3831L14.7193 96.374H12.7819Z" fill="#EBEBEB"/>
<path d="M9.72952 94.08L12.2229 94.3041L12.7831 96.3806H14.7205L13.6627 92.5637L13.3482 92.5354L9.72952 92.2119V94.08Z" fill="white"/>
<path d="M4.17771 96.3789H6.03976V100.876L5.62109 100.914L4.67711 100.999L4.17771 101.043V96.3789ZM7.94639 96.3855H9.80843V98.4331L9.38976 98.4704L8.44578 98.5548L7.94639 98.5994V96.3855Z" fill="#EBEBEB"/>
<path d="M102.469 183.614L103.822 198.795H88.9488L90.3042 183.616L96.3946 181.928L102.469 183.614Z" fill="#E44F26"/>
<path d="M96.3855 183.218L91.4638 184.583L90.306 197.554H96.3855V183.218Z" fill="#F1662A"/>
<path d="M96.3855 191.923H98.8494L99.0193 193.83H96.3855V195.692H101.054L101.01 195.192L100.552 190.061H96.3855V191.923ZM96.3855 187.088L96.394 187.086L98.4675 187.645L98.6 189.13H100.469L100.208 186.207L96.394 185.148L96.3855 185.151V187.088Z" fill="#EBEBEB"/>
<path d="M96.3922 191.923V190.061H94.0994L94.3151 187.646L96.3922 187.086V185.149L92.5747 186.207L92.547 186.522L92.1096 191.423L92.0639 191.923H96.3922ZM96.3922 195.692V193.83H91.8946L91.8572 194.248L91.7723 195.192L91.7277 195.692H96.3922Z" fill="white"/>
<defs>
<clipPath id="clip0_8963_61">
<rect width="19.2771" height="19.2771" fill="white" transform="matrix(0 1 -1 0 200 86.7469)"/>
</clipPath>
</defs>
</svg>
