<svg width="200" height="200" viewBox="0 0 200 200" fill="none" xmlns="http://www.w3.org/2000/svg">
<rect x="192.227" y="7.78027" width="184.44" height="184.315" rx="92.1574" transform="rotate(90 192.227 7.78027)" stroke="currentColor" stroke-opacity="0.1"/>
<g clip-path="url(#clip0_8963_59)">
<path d="M100.001 3.07715C97.9492 3.07715 96.6676 4.10239 96.1544 6.15371C96.9234 5.12835 97.8211 4.74386 98.8465 5.00023C99.4319 5.14614 99.8503 5.57066 100.314 6.04109C101.068 6.80636 101.941 7.69229 103.847 7.69229C105.898 7.69229 107.18 6.66693 107.693 4.61513C106.924 5.64109 106.026 6.02559 105.001 5.76922C104.415 5.62318 103.997 5.19878 103.533 4.72835C102.78 3.96309 101.907 3.07715 100.001 3.07715ZM96.1544 7.69229C94.1032 7.69229 92.8215 8.71765 92.3082 10.7695C93.0772 9.74349 93.9748 9.359 95.0003 9.61537C95.5858 9.7614 96.0042 10.1858 96.4675 10.6562C97.2216 11.4215 98.0944 12.3074 100.001 12.3074C102.052 12.3074 103.333 11.2822 103.847 9.23087C103.078 10.2562 102.18 10.6407 101.155 10.3844C100.569 10.2384 100.151 9.81393 99.6873 9.34349C98.9337 8.57823 98.0611 7.69229 96.1544 7.69229Z" fill="#38BDF8"/>
</g>
<path d="M187.981 100.821V105.825C187.981 105.985 188.024 106.141 188.104 106.279C188.184 106.416 188.299 106.53 188.437 106.61C188.577 106.689 188.734 106.731 188.894 106.731C189.054 106.731 189.212 106.689 189.351 106.61L195.223 103.248C195.362 103.17 195.478 103.056 195.559 102.918C195.639 102.781 195.682 102.624 195.682 102.464C195.682 102.305 195.639 102.148 195.559 102.01C195.478 101.872 195.362 101.758 195.223 101.68L193.721 100.821L196.659 99.1409C196.798 99.0626 196.914 98.9488 196.994 98.811C197.075 98.6732 197.117 98.5164 197.117 98.3567C197.117 98.1971 197.075 98.0403 196.994 97.9025C196.914 97.7647 196.798 97.6508 196.659 97.5726L189.351 93.3899C189.141 93.2702 188.893 93.2378 188.659 93.2999C188.426 93.362 188.226 93.5135 188.103 93.7216C188.023 93.8591 187.981 94.0149 187.981 94.174V97.3154C187.981 98.5601 188.532 99.4779 189.608 100.109L192.287 101.643L193.721 102.464L189.414 104.929V101.643L187.981 100.821ZM189.416 97.2644L189.416 95.0721L195.158 98.3587L192.287 99.9981L190.368 98.9005C189.67 98.4808 189.416 98.0043 189.416 97.2644Z" fill="#00DC82"/>
<path d="M1.88702 95.9615L1.88702 93.2692L13.4976 100L1.88702 106.731L1.88702 101.582L4.57933 100L1.88702 98.4519L1.88702 95.9615Z" fill="#41B883"/>
<path d="M1.88702 106.731L13.4976 100L1.88702 93.2692L1.88702 95.9615L8.85337 100L1.88702 104.072L1.88702 106.731Z" fill="#41B883"/>
<path d="M1.88702 104.072L8.88702 100L1.88702 95.9616L1.88702 98.452L4.57933 100L1.88702 101.582L1.88702 104.072Z" fill="#35495E"/>
<path d="M93.9 199.038H106.1C106.448 199.038 106.731 198.756 106.731 198.408V186.208C106.731 185.859 106.448 185.577 106.1 185.577H93.9C93.5516 185.577 93.2692 185.859 93.2692 186.208V198.408C93.2692 198.756 93.5516 199.038 93.9 199.038Z" fill="#3178C6"/>
<path fill-rule="evenodd" clip-rule="evenodd" d="M98.9207 188.577V187.102C98.6527 186.97 98.3671 186.877 98.0726 186.826C97.7323 186.763 97.3869 186.732 97.0409 186.734C96.7036 186.732 96.3671 186.766 96.037 186.835C95.7406 186.895 95.4578 187.009 95.2029 187.172C94.9662 187.324 94.7711 187.534 94.6351 187.78C94.3915 188.291 94.3594 188.878 94.5457 189.412C94.6243 189.612 94.7414 189.794 94.8904 189.949C95.0503 190.114 95.2319 190.255 95.4303 190.371C95.6586 190.504 95.8959 190.622 96.1404 190.724C96.3327 190.803 96.5058 190.881 96.6596 190.956C96.7963 191.022 96.927 191.099 97.0505 191.187C97.1472 191.254 97.2311 191.339 97.2986 191.436C97.3568 191.524 97.3871 191.627 97.3856 191.733C97.3869 191.83 97.3598 191.925 97.3077 192.007C97.2511 192.093 97.1756 192.165 97.087 192.217C96.9787 192.281 96.8609 192.327 96.738 192.353C96.5871 192.386 96.4329 192.403 96.2784 192.401C96.1484 192.401 96.0186 192.391 95.8899 192.373C95.7509 192.354 95.6134 192.326 95.4784 192.288C95.341 192.25 95.2067 192.202 95.0764 192.144C94.9501 192.087 94.8292 192.02 94.7154 191.941V193.317C94.9523 193.407 95.1981 193.471 95.4486 193.51C95.751 193.554 96.0564 193.574 96.362 193.572C96.6961 193.573 97.0292 193.536 97.3543 193.459C97.6482 193.392 97.9276 193.272 98.1793 193.106C98.4131 192.951 98.6062 192.741 98.7423 192.495C98.8865 192.222 98.9579 191.917 98.9495 191.608C98.9602 191.2 98.8258 190.802 98.5702 190.483C98.2566 190.13 97.8613 189.86 97.4187 189.695C97.2168 189.612 97.0285 189.53 96.8538 189.451C96.6962 189.38 96.5447 189.297 96.401 189.202C96.285 189.127 96.1831 189.031 96.1 188.921C96.0269 188.82 95.9881 188.699 95.9894 188.575C95.9888 188.482 96.0126 188.39 96.0586 188.31C96.1098 188.223 96.1816 188.15 96.2678 188.098C96.3756 188.032 96.4935 187.984 96.6168 187.957C96.7774 187.921 96.9417 187.904 97.1062 187.907C97.4292 187.907 97.7495 187.964 98.0529 188.075C98.3698 188.189 98.6637 188.36 98.9207 188.577ZM101.399 192.25H99.4755V193.464H104.837V192.25H102.923V186.839H101.399V192.25Z" fill="white"/>
<defs>
<clipPath id="clip0_8963_59">
<rect width="15.3846" height="15.3846" fill="white" transform="translate(92.3077)"/>
</clipPath>
</defs>
</svg>
