<svg width="26" height="27" viewBox="0 0 26 27" fill="none" xmlns="http://www.w3.org/2000/svg">
<path d="M7.8 26.88C3.84 26.88 2.52 25.74 2.52 22.89V16.5C2.52 14.82 2.25 14.22 0 14.22V12.45C2.04 12.45 2.49 12.09 2.49 10.2V4.02C2.49 1.14 3.84 0 7.8 0V1.98C5.79 1.98 5.25 2.4 5.25 3.96V9.75C5.25 11.58 4.74 12.81 3.45 13.38C4.74 13.95 5.22 15.09 5.22 16.92V22.95C5.22 24.48 5.79 24.9 7.8 24.9V26.88Z" fill="#0047FF"/>
<path d="M17.7398 24.9C19.7498 24.9 20.3198 24.48 20.3198 22.95V16.92C20.3198 15.09 20.7998 13.95 22.0898 13.38C20.7998 12.81 20.2898 11.58 20.2898 9.75V3.96C20.2898 2.4 19.7498 1.98 17.7398 1.98V0C21.6998 0 23.0498 1.14 23.0498 4.02V10.2C23.0498 12.09 23.4998 12.45 25.5398 12.45V14.22C23.2898 14.22 23.0198 14.82 23.0198 16.5V22.89C23.0198 25.74 21.6998 26.88 17.7398 26.88V24.9Z" fill="#0047FF"/>
</svg>
