<svg width="49" height="30" viewBox="0 0 49 30" fill="none" xmlns="http://www.w3.org/2000/svg">
<path d="M40.1311 27.1834C42.3254 27.1834 42.9477 26.7249 42.9477 25.0546V18.4716C42.9477 16.4738 43.4717 15.2293 44.88 14.607C43.4717 13.9847 42.9149 12.6419 42.9149 10.6441V4.32315C42.9149 2.62009 42.3254 2.16157 40.1311 2.16157V0C44.4542 0 45.928 1.24454 45.928 4.38865V11.1354C45.928 13.1987 46.4193 13.5917 48.6464 13.5917V15.524C46.1901 15.524 45.8953 16.179 45.8953 18.0131V24.9891C45.8953 28.1004 44.4542 29.345 40.1311 29.345V27.1834Z" fill="#0047FF"/>
<path d="M24.5525 16.4958H21.7032C20.1311 16.4958 18.559 16.6596 17.0853 17.4456V26.6159H13.5154V2.18359H26.3538C30.808 2.18359 34.0503 4.77093 34.0503 9.38884C34.0503 13.0897 31.9542 15.4805 28.4171 16.3648L30.3167 20.2622C31.856 22.522 32.4128 23.0133 33.9848 23.0133H34.3451L35.1311 22.9805V26.6159C32.2818 26.6159 29.3997 26.6159 27.5328 22.7513L24.5525 16.4958ZM17.0853 13.8757C18.559 13.0242 20.0984 12.926 21.7032 12.926H26.3538C28.8101 12.926 30.5132 11.8124 30.5132 9.19233C30.5132 6.63774 28.6791 5.75346 26.3538 5.75346H17.0853V13.8757Z" fill="currentColor"/>
<path d="M8.51528 29.345C4.19214 29.345 2.75109 28.1004 2.75109 24.9891V18.0131C2.75109 16.179 2.45633 15.524 0 15.524V13.5917C2.22707 13.5917 2.71834 13.1987 2.71834 11.1354V4.38865C2.71834 1.24454 4.19214 0 8.51528 0V2.16157C6.32096 2.16157 5.73144 2.62009 5.73144 4.32315V10.6441C5.73144 12.6419 5.17467 13.9847 3.76638 14.607C5.17467 15.2293 5.69869 16.4738 5.69869 18.4716V25.0546C5.69869 26.7249 6.32096 27.1834 8.51528 27.1834V29.345Z" fill="#0047FF"/>
</svg>
